<?xml version="1.0" ?><svg id="Layer_1" style="enable-background:new 0 0 426 426;" version="1.1" viewBox="0 0 426 426" xml:space="preserve" xmlns="http://www.w3.org/2000/svg" xmlns:xlink="http://www.w3.org/1999/xlink"><style type="text/css">
	.st0{fill:#3765AF;}
	.st1{fill:#FFFFFF;}
</style><path class="st0" d="M412.5,214.3c-9.2,58.5-27.1,75.6-58.8,114.9c-31.7,33.3-77.3,88.9-141.9,85.8c-58.5-9.2-75.6-27.1-114.9-58.8  C63.6,324.5,8,278.9,11.1,214.3c9.2-58.5,27.1-75.6,58.8-114.9c31.7-33.3,77.3-88.9,141.9-85.8c58.5,9.2,75.6,27.1,114.9,58.8  C360,104.1,415.6,149.7,412.5,214.3z"/><g><path class="st1" d="M277.1,146.2c-0.2,1.6-0.8,3.3-0.6,5c0.7,5.3,1.8,10.6,2.6,15.9c2.4,14.2,4.7,28.4,7.1,42.6   c2.3,14.2,4.7,28.4,7.1,42.6c1.5,9.1,3.1,18.1,4.6,27.2c0.3,1.4,0,2.4-1.7,2.6c-12.5,2-25.1,3.9-37.6,5.9   c-5.9,0.9-11.9,1.9-17.8,2.9c-0.5,0.1-1,0.9-1.4,1.4c0.1,0,0.1,0.1,0.2,0.1c0,0,0,0,0,0c0.6,0.3,1.2,1,1.8,0.9   c1.8-0.1,3.7-0.5,5.5-0.7c13.9-2.2,27.7-4.4,41.6-6.7c4.2-0.7,8.3-1.4,12.8-2.1c-7.7-46.1-15.3-91.8-23-137.5   C277.8,146.3,277.5,146.3,277.1,146.2z"/><path class="st1" d="M184.6,158c2.9-1.1,5.5-0.3,8,2.6c11.2,13.4,22.5,26.9,33.7,40.3c2.7,3.2,5.4,6.4,8.2,9.7   c1.5-1.5,1.2-2.6,0.2-3.9c-4.5-5.4-9-10.8-13.5-16.1c-9.1-10.8-18.1-21.7-27.2-32.4c-3.6-4.3-9.1-4.6-13.3-1c-2,1.7-3,3.8-3.1,6.1   c-0.1,2.2,0.8,4.5,2.7,6.7c14.1,17,28.2,34,42.3,51c2,2.5,4,4.8,6.1,7.3c1.6-1.5,1.2-2.6,0.2-3.9c-4.1-4.9-8.1-9.8-12.2-14.7   c-11.4-13.8-22.9-27.6-34.3-41.5c-0.9-1.1-1.7-2.6-2-4C179.9,161.7,181.8,159.1,184.6,158z"/><path class="st1" d="M122.6,232.9c0.4,2.6,0.8,5.2,1.1,7.8c0.1,0.6,0.2,1.3,0.2,1.9c0.3,2,1.1,2.3,2.9,2c5.4-0.8,10.8-1.6,16.2-2.2   c1.6-0.2,2.7-0.8,3.3-2.4c2-4.7,4-9.4,6.1-14.1c0.3-0.8,0.5-1.4,0.8-2.7c-10.7,1.8-20.9,3.4-31.4,5c0,0,0,0.1,0,0.1c0,0,0,0,0,0   C122.1,229.9,122.4,231.4,122.6,232.9z"/><path class="st1" d="M186.1,182c-2.2-1.4-4.8-2.2-7.2-3.2c-2.4,0.2-4.2,0.9-5.6,2.2c0,0,0,0-0.1,0c0,0,0,0-0.1,0.1   c-0.8,0.8-1.5,1.7-2,3c-0.1,0.3-0.3,0.7-0.4,1c-0.7,1.6-1.3,3.3-2,4.9c-0.2,0.4-0.4,0.8-0.5,1.2c-0.3,0.7-0.4,1.3-0.3,1.7   c0.1,0.5,0.6,0.8,1.4,1.1c4.4,1.6,8.7,3.1,13.1,4.8c1.6,0.6,2.3,0.1,2.8-1.3c1-2.5,2.1-5,3.1-7.4c0.4-1.1,0.7-2.1,0.7-3   C189.1,185.1,188.1,183.3,186.1,182z"/><path class="st1" d="M318,123.7c-0.8-0.8-2.3-1.3-4.9-2.2c-2.6-0.9-5-1.3-7.7-0.1c-4.4,1.8-8.5,1.1-12.1-2.5   c-0.9-0.9-1.8-1.7-2.8-2.5c0,0-0.1-0.1-0.1-0.1c-0.3-0.3-0.7-0.5-1-0.8c-0.2-0.2-0.4-0.3-0.6-0.5c-0.2-0.1-0.4-0.3-0.5-0.4   c-0.4-0.3-0.7-0.5-1.1-0.8c-0.1,0-0.1-0.1-0.2-0.1c-0.5-0.3-1-0.6-1.5-0.9c-1.7-1-3.5-1.8-5.5-2.5c-14.8-5.2-30-7.4-45.6-5   c-7.5,1.2-14.8,3.2-21.2,7.7c-0.9,0.7-1.6,1.4-2.5,2.2c0.1,0,0.1,0,0.1,0c0,0-0.1,0.1-0.1,0.1c8.7-0.7,16.9-0.8,25.2,0.3   c4.9,0.6,9.3,2.1,12.9,5.7c0.5,0.5,1,1,1.4,1.6c3.9,5,4.8,11,5.4,17c0.7,8.4-0.8,16.5-3.2,24.5c-2.5,8.5-4.8,17.1-7.2,25.6   c-0.3,0.9-0.5,1.7,0.3,2.2c0.2,0.1,0.4,0.2,0.7,0.3c2,0.6,4,1.1,6,1.7c2.2,0.6,4.4,1.3,6.7,1.9c0.2-0.6,0.4-1.2,0.5-1.8   c0.2-0.7,0.5-1.4,0.7-2.1c3.9-14.1,7.9-28.2,13.3-41.8c2.4-6.1,6.5-9.6,12.9-10.3c4.1-0.4,8.3-0.7,11.2,2.7   c0.1,0.1,0.2,0.3,0.3,0.4c0.1,0.1,0.2,0.3,0.3,0.4c1.8,2.4,3.9,3.8,6.9,4.2c1.4,0.2,2.9,0.6,4.2,1.1c1.9,0.7,2.6-0.1,3.1-1.8   c1.6-5.7,3.3-11.4,5-17.1C318.7,126.3,319.2,124.8,318,123.7z"/><path class="st1" d="M257.5,202.3c0.3-1.3,0.2-2.1-0.4-2.7c-0.4-0.3-0.9-0.6-1.7-0.8c-2.7-0.7-5.5-1.4-8.2-2.3   c-5-1.5-4-1.3-5.5,2.9c-12.3,35.2-24.7,70.3-37.1,105.5c-0.5,1.4-1,3-1,4.5c-0.2,4.4,1.3,8.2,4,10.9c2.7,2.7,6.6,4.2,11.4,4.3   c0.3,0,0.5,0,0.8,0c3.8,0,6.8-1.8,8.8-5.2c1.2-2.2,2.2-4.6,2.8-7c6.3-25.9,12.5-51.9,18.7-77.8C252.4,223.8,254.9,213,257.5,202.3z   "/><path class="st1" d="M204.7,298.6c-0.7-0.4-1.6-1.1-2.2-1c0,0,0,0,0,0c0,0,0,0-0.1,0c-9.3,1.3-18.5,2.7-27.7,4.2   c-18.7,2.9-37.5,5.8-56.1,8.8c-0.5,0.1-0.9,0.1-1.2,0.1c-1-0.1-1.4-0.7-1.6-2.1c-1.1-8.1-2.3-16.3-3.5-24.3c-2.7-18-5.5-36-8.2-54   c-2.9-19.6-5.8-39.3-8.8-58.9c-0.3-2.2,0.4-3.1,2.5-3.4c3.8-0.5,7.5-1.2,11.3-1.8c15.4-2.5,30.8-5,46.2-7.5   c13.4-2.2,27-4.4,40.4-6.7c1.4-0.2,2.7-0.4,4.1-0.7c9.8-1.6,19.5-3.2,29.3-4.8c1.4-0.2,2.7-0.4,4.1-0.7c5.9-1,11.8-1.9,17.6-3   c0.7-0.1,1.2-1.2,1.8-1.8c-0.8-0.3-1.6-0.7-2.4-0.9c-0.1,0-0.1,0-0.2,0c-0.2,0-0.4,0.1-0.6,0.1c-7.3,1.2-14.6,2.5-21.9,3.7   c-15.4,2.5-30.8,5-46.2,7.6c-14.4,2.4-28.7,4.8-43.1,7.1c-14.8,2.4-29.5,4.9-44.3,7.2c-1.6,0.3-2.5,0.7-1.9,2.1   c0.1,0.9,0.2,1.7,0.3,2.5c0.2,1.1,0.3,2.2,0.5,3.2c1.9,12.5,3.9,25.1,5.7,37.6c1.9,12.6,3.7,25.3,5.5,37.9   c1.9,12.7,3.8,25.4,5.7,38.1c1.2,8,2.4,16.1,3.6,24.2c0.2,1.5,0.7,2.3,2.2,2.2c0.2,0,0.5,0,0.7-0.1c11.9-2,23.8-3.9,35.6-5.7   c17-2.6,33.9-5.2,50.9-7.9C203.6,299.9,204.1,299.1,204.7,298.6z"/><path class="st1" d="M159.2,263.2c7.8-20,15.8-40,23.7-60c0.3-0.7,0.5-1.2,0.8-2.2c-0.5-0.3-1-0.8-1.6-1c-4.5-1.7-9-3.3-13.5-5   c-1.4-0.5-2.1,0-2.6,1.2c-8.2,20.2-16.4,40.4-24.7,60.6c-0.2,0.4-0.3,0.8-0.3,1.1c-0.1,0.9,0.4,1.4,1.5,1.8   c4.2,1.7,8.6,3.3,12.7,5.2C157.4,266.1,158.3,265.5,159.2,263.2z"/><path class="st1" d="M174.4,237.6c17.4-2.8,34.5-5.7,52.3-8.6c-2.2-2.8-4.3-5.3-6.3-7.8c-0.9-1.1-1.7-2.2-2.4-3.4   c-0.6-0.8-1.2-1.6-1.8-2.2c-1.8-1.9-4-2.5-7.1-1.3c-0.4,0.1-0.8,0.2-1.2,0.3c-0.6,0.1-1.2,0.1-1.8,0.2c-0.1,0-0.1,0-0.2,0   c-8.7,1.5-17.4,3-26.2,4.5c-0.1,0-0.2,0-0.3,0.1c-0.4,0.1-0.8,0.2-1.1,0.3c-0.7,0.3-1.4,0.8-1.7,1.8c-1.7,4.8-3.5,9.6-5.3,14.4   c-0.2,0.5-0.2,1.2-0.3,2.1c0,0,0,0,0.1,0c0,0,0,0,0,0C172.2,238,173.3,237.8,174.4,237.6z"/><path class="st1" d="M249.2,255.5c1.2,1.4,2.7,2.5,4.4,3.4c2.2,1.2,4.6,2.1,6.9,3.2c3.3,1.6,5.7,4,5.7,8c0,0.7,0.4,1.3,0.6,2   c0.4-0.2,0.5-0.2,0.7-0.3c0.2-0.2,0.3-0.4,0.5-0.6c2.5-3.7,3.5-7.5,3.5-11.5c0-2.4-0.4-4.9-1-7.3c-1.9-7.3-5.3-13.6-12.4-17.3   c-2-1-3.2-0.1-4.6,0.8c-1.3,0.9-2.1,2-2,3.7c0,0.3,0,0.6,0.1,0.9c1-0.7,2-1.1,2.6-1.8c1.7-1.7,3.2-1.4,5-0.1   c5.8,4,9.9,13.1,9.9,20.5c0,1.4-0.2,2.8-0.5,4c-0.1,0.3-0.1,0.5-0.2,0.7c-6.4-3.9-12.7-7.8-19.6-11.9c0,0,0,0.1,0,0.1c0,0,0,0,0,0   C248.7,253.4,248.5,254.8,249.2,255.5z"/><path class="st1" d="M137.5,291.6C137.5,291.6,137.5,291.6,137.5,291.6c6.5-8.1,13-16.2,19.6-24.5c-1-0.5-1.6-0.9-2.2-1.2   c-4.2-1.7-8.4-3.3-12.5-5c-0.5-0.2-0.9-0.3-1.3-0.4c-1-0.1-1.3,0.6-1.5,2.1c-0.5,5.5-1.2,11-1.8,16.5c-0.5,4-0.8,8-1.2,12.1   C137,291.4,137.3,291.6,137.5,291.6C137.5,291.6,137.5,291.6,137.5,291.6z"/><path class="st1" d="M255.5,223.8c5.5-0.7,10.9-1.4,16.3-2.3c0.5-0.1,1-1.2,1-1.8c-0.7-4.3-1.4-8.7-2.4-12.9   c-0.1-0.7-1.2-1.6-1.9-1.6c0,0,0,0,0,0c-2.7,0.2-5.5,0.6-8.2,1c-1.4,0.2-2.4,0.8-1.6,2.8c0.6-0.1,1.2-0.2,1.9-0.3   c1.9-0.3,3.8-0.5,5.7-0.7c0.5-0.1,1.4,0.3,1.7,0.7c0,0.1,0.1,0.1,0.1,0.2c0.7,3.3,1.2,6.7,1.9,10.1c-4.3,0.6-8.2,1.1-12.1,1.6   C256.3,221,254.9,221.3,255.5,223.8z"/></g></svg>