<?xml version="1.0" ?><svg viewBox="0 0 550 550" xmlns="http://www.w3.org/2000/svg" xmlns:xlink="http://www.w3.org/1999/xlink"><defs><style>.cls-1{fill:url(#radial-gradient);}.cls-2{fill:url(#radial-gradient-2);}.cls-3{fill:url(#radial-gradient-3);}.cls-4{fill:url(#radial-gradient-4);}.cls-5{fill:url(#radial-gradient-5);}.cls-6{fill:url(#radial-gradient-6);}</style><radialGradient cx="152.53" cy="329.77" gradientUnits="userSpaceOnUse" id="radial-gradient" r="85.15"><stop offset="0" stop-color="#7795c2"/><stop offset="1" stop-color="#25427a"/></radialGradient><radialGradient cx="286.62" cy="396.54" id="radial-gradient-2" r="57.82" xlink:href="#radial-gradient"/><radialGradient cx="288.54" cy="163.77" id="radial-gradient-3" r="57.58" xlink:href="#radial-gradient"/><radialGradient cx="286.93" cy="242.38" id="radial-gradient-4" r="131.88" xlink:href="#radial-gradient"/><radialGradient cx="288.54" cy="278.77" id="radial-gradient-5" r="245" xlink:href="#radial-gradient"/><radialGradient cx="421.69" cy="328.76" id="radial-gradient-6" r="87.58" xlink:href="#radial-gradient"/></defs><title/><g id="TurboCharger"><path class="cls-1" d="M115.28,219.17l84.87,221.2A182.8,182.8,0,0,1,104.9,280,180,180,0,0,1,115.28,219.17Z"/><path class="cls-2" d="M333.69,452.61l.57,4.59A185.06,185.06,0,0,1,288,463a181,181,0,0,1-49.06-6.6l.24-3.8,47.23-122.54Z"/><path class="cls-3" d="M288.66,230.74l-46.44-128.1a183.92,183.92,0,0,1,92.65.2Z"/><path class="cls-4" d="M428.59,162.9l-77.3,200.79-28-72.48H249.75l-28,72.48-76.5-198.4A185,185,0,0,1,197,121.06l53.89,148.32h75.61l53.66-147.72A183.58,183.58,0,0,1,428.59,162.9Z"/><path class="cls-5" d="M288.55,33.78c-135.31,0-245,109.69-245,245v.63c.34,135,109.91,244.37,245,244.37a244,244,0,0,0,108.75-25.4c.71-.35,1.41-.71,2.11-1.07A245,245,0,0,0,533.54,278.77C533.54,143.47,423.85,33.78,288.55,33.78ZM288,493C170.71,493,74.77,397.34,74.77,280c0-117.54,95.94-213.4,213.27-213.4S501.26,162.47,501.26,280C501.26,397.34,405.37,493,288,493Z"/><path class="cls-6" d="M471,280c0,70.48-40.24,131.73-98.67,162.33l87.07-227.21A182.83,182.83,0,0,1,471,280Z"/></g></svg>